<?xml version="1.0" encoding="UTF-8"?>
<svg width="600" height="400" viewBox="0 0 600 400" fill="none" xmlns="http://www.w3.org/2000/svg">
    <!-- Background -->
    <rect width="600" height="400" rx="12" fill="#F8F9FA"/>
    
    <!-- Dashboard Card 1 -->
    <rect x="30" y="30" width="260" height="160" rx="8" fill="white" stroke="#E9ECEF" stroke-width="1"/>
    <rect x="50" y="50" width="220" height="20" rx="4" fill="#E9ECEF"/>
    <rect x="50" y="80" width="220" height="90" rx="4" fill="#F8F9FA" stroke="#E9ECEF" stroke-width="1"/>
    
    <!-- Dashboard Card 2 -->
    <rect x="310" y="30" width="260" height="160" rx="8" fill="white" stroke="#E9ECEF" stroke-width="1"/>
    <rect x="330" y="50" width="220" height="20" rx="4" fill="#E9ECEF"/>
    <rect x="330" y="80" width="220" height="90" rx="4" fill="#F8F9FA" stroke="#E9ECEF" stroke-width="1"/>
    
    <!-- Dashboard Card 3 -->
    <rect x="30" y="210" width="260" height="160" rx="8" fill="white" stroke="#E9ECEF" stroke-width="1"/>
    <rect x="50" y="230" width="220" height="20" rx="4" fill="#E9ECEF"/>
    <rect x="50" y="260" width="220" height="90" rx="4" fill="#F8F9FA" stroke="#E9ECEF" stroke-width="1"/>
    
    <!-- Dashboard Card 4 -->
    <rect x="310" y="210" width="260" height="160" rx="8" fill="white" stroke="#E9ECEF" stroke-width="1"/>
    <rect x="330" y="230" width="220" height="20" rx="4" fill="#E9ECEF"/>
    <rect x="330" y="260" width="220" height="90" rx="4" fill="#F8F9FA" stroke="#E9ECEF" stroke-width="1"/>
    
    <!-- Chart Lines -->
    <path d="M80 140 C 150 100, 200 180, 270 120" stroke="#0D6EFD" stroke-width="3" fill="none" stroke-linecap="round"/>
    <path d="M360 140 C 400 80, 450 160, 530 100" stroke="#198754" stroke-width="3" fill="none" stroke-linecap="round"/>
    <path d="M80 320 C 150 280, 200 360, 270 300" stroke="#FD7E14" stroke-width="3" fill="none" stroke-linecap="round"/>
    <path d="M360 320 C 400 260, 450 340, 530 280" stroke="#6F42C1" stroke-width="3" fill="none" stroke-linecap="round"/>
    
    <!-- Icons -->
    <circle cx="100" cy="100" r="8" fill="#0D6EFD"/>
    <circle cx="380" cy="100" r="8" fill="#198754"/>
    <circle cx="100" cy="280" r="8" fill="#FD7E14"/>
    <circle cx="380" cy="280" r="8" fill="#6F42C1"/>
</svg>
